<svg width="22" height="18" viewBox="0 0 22 18" fill="none" xmlns="http://www.w3.org/2000/svg">
<path d="M0.916663 9.89988L19.2037 9.89988L12.2013 16.4482C11.8346 16.7911 11.8204 17.3608 12.1697 17.7208C12.5185 18.0803 13.0987 18.0947 13.4658 17.7518L21.4628 10.2729C21.8089 9.93273 22 9.48094 22 8.99989C22 8.5193 21.8089 8.06705 21.4468 7.71201L13.4654 0.248399C13.288 0.0823505 13.0607 2.68885e-06 12.8333 2.70872e-06C12.5913 2.72988e-06 12.3493 0.0936002 12.1692 0.279448C11.82 0.639443 11.8342 1.20869 12.2008 1.55159L19.2326 8.0999L0.916663 8.0999C0.410663 8.0999 -2.73759e-06 8.5031 -2.69416e-06 8.99989C-2.65073e-06 9.49669 0.410663 9.89988 0.916663 9.89988Z" fill="#3781CE"/>
</svg>
