<svg width="18" height="18" viewBox="0 0 18 18" fill="none" xmlns="http://www.w3.org/2000/svg">
<g clip-path="url(#clip0)">
<path d="M11.9321 9.09224L18.0004 12.9285L18.0004 5.09399L11.9321 9.09224Z" fill="#0065BB"/>
<path d="M0 5.09399L1.04669e-07 12.9285L6.06825 9.09224L0 5.09399Z" fill="#0065BB"/>
<path d="M16.8745 2.8125L1.12445 2.8125C0.563078 2.8125 0.117578 3.231 0.0332031 3.76988L8.99945 9.67725L17.9657 3.76987C17.8813 3.231 17.4358 2.8125 16.8745 2.8125Z" fill="#0065BB"/>
<path d="M10.9009 9.77175L9.30902 10.8203C9.21452 10.8821 9.10764 10.9125 8.99964 10.9125C8.89164 10.9125 8.78477 10.8821 8.69027 10.8203L7.09839 9.77063L0.0356446 14.238C0.12227 14.7724 0.56552 15.1875 1.12464 15.1875L16.8746 15.1875C17.4338 15.1875 17.877 14.7724 17.9636 14.238L10.9009 9.77175Z" fill="#0065BB"/>
</g>
<defs>
<clipPath id="clip0">
<rect width="18" height="18" fill="white"/>
</clipPath>
</defs>
</svg>
