<svg width="7" height="11" viewBox="0 0 7 11" fill="none" xmlns="http://www.w3.org/2000/svg">
<path d="M2.44061 5.50233L6.55568 1.38707C6.66899 1.27403 6.73132 1.12289 6.73132 0.96174C6.73132 0.800496 6.66899 0.649447 6.55568 0.536228L6.19509 0.175821C6.08196 0.0624228 5.93074 0 5.76958 0C5.60843 0 5.45738 0.0624228 5.34416 0.175821L0.444509 5.07538C0.330842 5.18896 0.268598 5.34072 0.269045 5.50206C0.268598 5.66411 0.330753 5.81569 0.444509 5.92936L5.3396 10.8242C5.45282 10.9376 5.60387 11 5.76511 11C5.92626 11 6.07731 10.9376 6.19062 10.8242L6.55112 10.4638C6.7857 10.2292 6.7857 9.84732 6.55112 9.61284L2.44061 5.50233Z" fill="#0065BB"/>
</svg>
