<svg width="18" height="18" viewBox="0 0 18 18" fill="none" xmlns="http://www.w3.org/2000/svg">
<path d="M7.92682 0C3.55609 0 0 3.55609 0 7.92682C0 12.2978 3.55609 15.8536 7.92682 15.8536C12.2978 15.8536 15.8536 12.2978 15.8536 7.92682C15.8536 3.55609 12.2978 0 7.92682 0ZM7.92682 14.3903C4.36293 14.3903 1.46341 11.4908 1.46341 7.92686C1.46341 4.36296 4.36293 1.46341 7.92682 1.46341C11.4907 1.46341 14.3902 4.36293 14.3902 7.92682C14.3902 11.4907 11.4907 14.3903 7.92682 14.3903Z" fill="black"/>
<path d="M17.785 16.7508L13.5899 12.5557C13.304 12.2698 12.8411 12.2698 12.5552 12.5557C12.2694 12.8413 12.2694 13.3047 12.5552 13.5903L16.7503 17.7855C16.8932 17.9284 17.0803 17.9999 17.2677 17.9999C17.4547 17.9999 17.642 17.9284 17.785 17.7855C18.0708 17.4999 18.0708 17.0364 17.785 16.7508Z" fill="black"/>
</svg>
