<svg width="12" height="10" viewBox="0 0 12 10" fill="none" xmlns="http://www.w3.org/2000/svg">
<path d="M0.5 5.50012L10.4748 5.50012L6.65525 9.13812C6.45525 9.32862 6.4475 9.64512 6.638 9.84512C6.82825 10.0449 7.14475 10.0529 7.345 9.86237L11.707 5.70737C11.8958 5.51837 12 5.26737 12 5.00012C12 4.73312 11.8958 4.48187 11.6983 4.28462L7.34475 0.138121C7.248 0.0458713 7.124 0.000121644 7 0.000121633C6.868 0.000121622 6.736 0.0521217 6.63775 0.155371C6.44725 0.355371 6.455 0.671622 6.655 0.862122L10.4905 4.50012L0.5 4.50012C0.224 4.50012 4.61253e-07 4.72412 4.37125e-07 5.00012C4.12996e-07 5.27612 0.224 5.50012 0.5 5.50012Z" fill="black"/>
</svg>
