<svg width="16" height="16" viewBox="0 0 16 16" fill="none" xmlns="http://www.w3.org/2000/svg">
<path d="M9.76221 8.00021L15.7444 2.01777C15.9089 1.85309 15.9997 1.63338 16 1.39911C16 1.1647 15.9092 0.944732 15.7444 0.78031L15.2202 0.256212C15.0553 0.0911389 14.8356 0.000732422 14.6011 0.000732422C14.367 0.000732422 14.1473 0.0911389 13.9824 0.256212L8.00026 6.23826L2.01782 0.256212C1.85327 0.0911389 1.63343 0.000732422 1.39902 0.000732422C1.16488 0.000732422 0.945041 0.0911389 0.780488 0.256212L0.256 0.78031C-0.0853333 1.12164 -0.0853333 1.67683 0.256 2.01777L6.23831 8.00021L0.256 13.9824C0.0913171 14.1473 0.000650406 14.367 0.000650406 14.6013C0.000650406 14.8356 0.0913171 15.0553 0.256 15.2201L0.780358 15.7442C0.944911 15.9092 1.16488 15.9997 1.39889 15.9997C1.6333 15.9997 1.85314 15.9092 2.01769 15.7442L8.00013 9.76203L13.9823 15.7442C14.1471 15.9092 14.3668 15.9997 14.601 15.9997H14.6012C14.8355 15.9997 15.0552 15.9092 15.22 15.7442L15.7443 15.2201C15.9088 15.0554 15.9996 14.8356 15.9996 14.6013C15.9996 14.367 15.9088 14.1473 15.7443 13.9825L9.76221 8.00021Z" fill="#A6A6A6"/>
</svg>
