<svg width="17" height="17" viewBox="0 0 17 17" fill="none" xmlns="http://www.w3.org/2000/svg">
<g clip-path="url(#clip0)">
<path d="M16.2801 6.1913C16.0027 5.91541 15.5543 5.91664 15.2784 6.19399L6.76329 14.7551C5.65856 15.8598 3.86432 15.8599 2.75754 14.7536C1.65158 13.6471 1.65158 11.8529 2.75767 10.7468L11.5248 1.9336C12.2145 1.24392 13.3358 1.24392 14.0275 1.9351C14.719 2.6266 14.719 3.7478 14.0274 4.4395L6.76462 11.7022C6.76415 11.7027 6.76375 11.7032 6.76329 11.7037C6.4866 11.9788 6.03944 11.9784 5.76332 11.7023C5.48673 11.4257 5.48673 10.9774 5.76332 10.7009L9.26899 7.19446C9.54558 6.91781 9.54554 6.46929 9.26889 6.1927C8.99223 5.91611 8.54372 5.91614 8.26713 6.1928L4.76149 9.69913C3.9317 10.5289 3.9317 11.8742 4.76156 12.7041C5.59139 13.5339 6.93668 13.5339 7.76654 12.7041C7.76751 12.7031 7.76827 12.7021 7.7692 12.7011L15.0291 5.4412C16.274 4.19625 16.274 2.17805 15.0291 0.933101C13.784 -0.311115 11.7659 -0.311115 10.5217 0.933101L1.75458 9.74635C0.0965805 11.4044 0.0965804 14.0954 1.75578 15.7554C3.41607 17.4148 6.10711 17.4148 7.76641 15.7555L16.2828 7.19307C16.5587 6.91568 16.5575 6.4672 16.2801 6.1913Z" fill="#C4C4C4"/>
</g>
<defs>
<clipPath id="clip0">
<rect width="17" height="17" fill="white"/>
</clipPath>
</defs>
</svg>
