<svg width="21" height="21" viewBox="0 0 21 21" fill="none" xmlns="http://www.w3.org/2000/svg">
<path d="M11.3749 5.25001C11.3749 5.73322 10.9832 6.12495 10.4999 6.12495C10.0167 6.12495 9.625 5.73322 9.625 5.25001C9.625 4.76679 10.0167 4.37506 10.4999 4.37506C10.9832 4.37506 11.3749 4.76679 11.3749 5.25001Z" fill="#B5B5B5"/>
<path d="M10.4999 16.6249C10.1377 16.6249 9.8437 16.3309 9.8437 15.9687V9.1875H8.96875C8.6065 9.1875 8.3125 8.8935 8.3125 8.53125C8.3125 8.169 8.6065 7.875 8.96875 7.875H10.4999C10.8622 7.875 11.1562 8.169 11.1562 8.53125V15.9687C11.1562 16.3309 10.8622 16.6249 10.4999 16.6249Z" fill="#B5B5B5"/>
<path d="M10.5 21C4.71007 21 0 16.2899 0 10.5C0 4.71007 4.71007 0 10.5 0C16.2899 0 21 4.71007 21 10.5C21 16.2899 16.2899 21 10.5 21ZM10.5 1.3125C5.43377 1.3125 1.3125 5.43377 1.3125 10.5C1.3125 15.5662 5.43377 19.6875 10.5 19.6875C15.5662 19.6875 19.6875 15.5662 19.6875 10.5C19.6875 5.43377 15.5662 1.3125 10.5 1.3125Z" fill="#B5B5B5"/>
<path d="M12.4688 16.6249H8.53125C8.169 16.6249 7.875 16.3309 7.875 15.9687C7.875 15.6064 8.169 15.3124 8.53125 15.3124H12.4688C12.831 15.3124 13.125 15.6064 13.125 15.9687C13.125 16.3309 12.831 16.6249 12.4688 16.6249Z" fill="#B5B5B5"/>
</svg>
