<svg width="20" height="16" viewBox="0 0 20 16" fill="none" xmlns="http://www.w3.org/2000/svg">
<path d="M19.2188 7.21875H0.78125C0.349766 7.21875 0 7.56852 0 8C0 8.43148 0.349766 8.78125 0.78125 8.78125H19.2188C19.6502 8.78125 20 8.43148 20 8C20 7.56852 19.6502 7.21875 19.2188 7.21875Z" fill="white"/>
<path d="M19.2188 0.96875H0.78125C0.349766 0.96875 0 1.31852 0 1.75C0 2.18148 0.349766 2.53125 0.78125 2.53125H19.2188C19.6502 2.53125 20 2.18148 20 1.75C20 1.31852 19.6502 0.96875 19.2188 0.96875Z" fill="white"/>
<path d="M19.2188 13.4688H0.78125C0.349766 13.4688 0 13.8185 0 14.25C0 14.6815 0.349766 15.0312 0.78125 15.0312H19.2188C19.6502 15.0312 20 14.6815 20 14.25C20 13.8185 19.6502 13.4688 19.2188 13.4688Z" fill="white"/>
</svg>
