<svg width="14" height="20" viewBox="0 0 14 20" fill="none" xmlns="http://www.w3.org/2000/svg">
<path d="M7.00018 0C3.32424 0 0.333496 2.99074 0.333496 6.66668C0.333496 7.7702 0.609394 8.86434 1.13389 9.8348L6.63561 19.7852C6.70885 19.9178 6.84842 20 7.00018 20C7.15193 20 7.29151 19.9178 7.36475 19.7852L12.8685 9.83152C13.391 8.86434 13.6669 7.77016 13.6669 6.66664C13.6669 2.99074 10.6761 0 7.00018 0ZM7.00018 10C5.16221 10 3.66686 8.50465 3.66686 6.66668C3.66686 4.82871 5.16221 3.33336 7.00018 3.33336C8.83815 3.33336 10.3335 4.82871 10.3335 6.66668C10.3335 8.50465 8.83815 10 7.00018 10Z" fill="#0065BB"/>
</svg>
