<svg width="7" height="11" viewBox="0 0 7 11" fill="none" xmlns="http://www.w3.org/2000/svg">
<path d="M4.55939 5.49767L0.44432 9.61293C0.331011 9.72597 0.268678 9.87711 0.268678 10.0383C0.268678 10.1995 0.331011 10.3506 0.44432 10.4638L0.804905 10.8242C0.918036 10.9376 1.06926 11 1.23042 11C1.39157 11 1.54262 10.9376 1.65584 10.8242L6.55549 5.92462C6.66916 5.81104 6.7314 5.65928 6.73096 5.49794C6.7314 5.33589 6.66925 5.18431 6.55549 5.07064L1.6604 0.175822C1.54718 0.0624233 1.39613 -4.66385e-07 1.23489 -4.80481e-07C1.07374 -4.9457e-07 0.922687 0.0624232 0.809378 0.175822L0.448882 0.536228C0.214305 0.770805 0.214305 1.15268 0.448882 1.38716L4.55939 5.49767Z" fill="#0065BB"/>
</svg>
