<svg width="22" height="22" viewBox="0 0 22 22" fill="none" xmlns="http://www.w3.org/2000/svg">
<path d="M11.7153 3.71193C11.9826 4.70939 12.089 5.73057 12.0309 6.74084C11.9977 7.23718 12.2898 7.75811 12.6492 7.95928L14.5229 9.42061C13.9582 11.8489 13.0006 13.5081 11.1918 15.1916L9.04805 14.3275C8.60638 14.0721 8.06416 14.0833 7.62701 14.361C6.77658 14.919 5.83959 15.3378 4.84171 15.6052C4.12082 15.7983 3.69149 16.5419 3.88464 17.2628L4.68633 20.2547C4.87948 20.9755 5.62309 21.4049 6.34392 21.2117C14.6066 18.9978 19.5274 10.4746 17.3134 2.21191C17.1203 1.49107 16.3767 1.06175 15.6558 1.2549L12.6723 2.05435C11.9515 2.24752 11.5221 2.99114 11.7153 3.71193Z" fill="#0065BB"/>
</svg>
