<svg width="39" height="39" viewBox="0 0 39 39" fill="none" xmlns="http://www.w3.org/2000/svg">
<path d="M33.2886 5.71137C29.6056 2.0283 24.7086 0 19.5 0C14.2914 0 9.39443 2.0283 5.71137 5.71137C2.02838 9.39443 0 14.2914 0 19.5C0 24.7086 2.02838 29.6056 5.71137 33.2886C9.39443 36.9717 14.2914 39 19.5 39C24.7086 39 29.6056 36.9717 33.2886 33.2886C36.9716 29.6056 39 24.7086 39 19.5C39 14.2914 36.9716 9.39443 33.2886 5.71137ZM19.5 36.7148C10.0077 36.7148 2.28516 28.9923 2.28516 19.5C2.28516 10.0077 10.0077 2.28516 19.5 2.28516C28.9923 2.28516 36.7148 10.0077 36.7148 19.5C36.7148 28.9923 28.9923 36.7148 19.5 36.7148Z" fill="#3683EE"/>
<path d="M20.7236 18.3574H18.2759C16.8814 18.3574 15.747 17.223 15.747 15.8286C15.747 14.4341 16.8815 13.2997 18.2759 13.2997H23.1712C23.8023 13.2997 24.3138 12.7881 24.3138 12.1571C24.3138 11.5261 23.8023 11.0145 23.1712 11.0145H20.6423V8.4856C20.6423 7.85459 20.1308 7.34302 19.4998 7.34302C18.8687 7.34302 18.3572 7.85459 18.3572 8.4856V11.0145H18.276C15.6215 11.0145 13.4619 13.1741 13.4619 15.8286C13.4619 18.483 15.6215 20.6425 18.276 20.6425H20.7237C22.1181 20.6425 23.2525 21.7771 23.2525 23.1715C23.2525 24.5659 22.1181 25.7004 20.7237 25.7004H15.8283C15.1973 25.7004 14.6858 26.2119 14.6858 26.8429C14.6858 27.4739 15.1973 27.9855 15.8283 27.9855H18.3572V30.5145C18.3572 31.1455 18.8687 31.6571 19.4998 31.6571C20.1308 31.6571 20.6423 31.1455 20.6423 30.5145V27.9855H20.7236C23.378 27.9855 25.5376 25.8259 25.5376 23.1715C25.5376 20.517 23.378 18.3574 20.7236 18.3574Z" fill="#3683EE"/>
</svg>
