<?xml version="1.0" encoding="utf-8"?><svg width="39" height="39" xmlns="http://www.w3.org/2000/svg" viewBox="0 0 39 39"><path d="M33.289 5.711A19.372 19.372 0 0019.5 0 19.372 19.372 0 005.711 5.711 19.373 19.373 0 000 19.5a19.373 19.373 0 005.711 13.789A19.372 19.372 0 0019.5 39a19.372 19.372 0 0013.789-5.711A19.373 19.373 0 0039 19.5a19.373 19.373 0 00-5.711-13.789zM19.5 36.715c-9.492 0-17.215-7.723-17.215-17.215S10.008 2.285 19.5 2.285 36.715 10.008 36.715 19.5 28.992 36.715 19.5 36.715z"/><path d="M20.724 18.357h-2.448a2.532 2.532 0 01-2.529-2.528 2.532 2.532 0 012.529-2.53h4.895a1.143 1.143 0 100-2.284h-2.529v-2.53a1.143 1.143 0 10-2.285 0v2.53h-.081a4.82 4.82 0 00-4.814 4.814 4.82 4.82 0 004.814 4.813h2.448a2.532 2.532 0 012.529 2.53 2.532 2.532 0 01-2.53 2.528h-4.895a1.142 1.142 0 100 2.285h2.53v2.53a1.143 1.143 0 102.284 0v-2.53h.082a4.82 4.82 0 004.814-4.813 4.82 4.82 0 00-4.814-4.815z"/></svg>