<?xml version="1.0" encoding="utf-8"?><svg width="18" height="18" xmlns="http://www.w3.org/2000/svg" viewBox="0 0 18 18"><g clip-path="url(#oclip0)"><path d="M11.932 9.092L18 12.928V5.095l-6.068 3.998zM0 5.094v7.834l6.068-3.836L0 5.094zM16.875 2.813H1.125c-.562 0-1.007.418-1.092.957L9 9.677l8.967-5.907c-.085-.539-.53-.958-1.091-.958zM10.9 9.772L9.31 10.82a.562.562 0 01-.619 0L7.098 9.77.036 14.239c.086.534.53.95 1.089.95h15.75c.559 0 1.002-.416 1.089-.95L10.9 9.772z"/></g><defs><clipPath id="oclip0"><path d="M0 0h18v18H0z"/></clipPath></defs></svg>