<?xml version="1.0" encoding="utf-8"?><svg width="17" height="17" xmlns="http://www.w3.org/2000/svg" viewBox="0 0 17 17"><g clip-path="url(#aclip0)"><path d="M16.28 6.191a.708.708 0 00-1.002.003l-8.515 8.561a2.834 2.834 0 01-4.005-4.008l8.767-8.813a1.77 1.77 0 012.502 2.505l-7.262 7.263-.002.002a.708.708 0 01-1-1.003L9.27 7.194a.708.708 0 00-1.002-1.001L4.761 9.699a2.125 2.125 0 103.006 3.005l.002-.003 7.26-7.26A3.188 3.188 0 0010.522.933L1.755 9.746a4.25 4.25 0 006.011 6.01l8.517-8.563a.708.708 0 00-.003-1.002z"/></g><defs><clipPath id="aclip0"><path d="M0 0h17v17H0z"/></clipPath></defs></svg>