<?xml version="1.0" encoding="utf-8"?><svg width="21" height="21" xmlns="http://www.w3.org/2000/svg" viewBox="0 0 21 21"><path d="M11.375 5.25a.875.875 0 11-1.75 0 .875.875 0 011.75 0zM10.5 16.625a.656.656 0 01-.656-.656V9.188h-.875a.656.656 0 010-1.313h1.53c.363 0 .657.294.657.656v7.438a.656.656 0 01-.656.656z"/><path d="M10.5 21C4.71 21 0 16.29 0 10.5S4.71 0 10.5 0 21 4.71 21 10.5 16.29 21 10.5 21zm0-19.688c-5.066 0-9.188 4.122-9.188 9.188 0 5.066 4.122 9.188 9.188 9.188 5.066 0 9.188-4.122 9.188-9.188 0-5.066-4.122-9.188-9.188-9.188z"/><path d="M12.469 16.625H8.53a.656.656 0 010-1.313h3.938a.656.656 0 010 1.313z"/></svg>