<?xml version="1.0" encoding="utf-8"?><svg viewBox="0 0 23 23" xmlns="http://www.w3.org/2000/svg" xmlns:xlink="http://www.w3.org/1999/xlink"><style>:root>svg{display:none}:root>svg:target{display:block}</style><svg viewBox="0 0 13 14" id="about__slider-left" xmlns="http://www.w3.org/2000/svg"><g clip-path="url(#aclip0)"><path d="M5.575 1L0 7l5.573 6 .657-.705L1.777 7.5H13v-1H1.777l4.455-4.797L5.575 1z"/></g><defs><clipPath id="aclip0"><path d="M0 0h13v14H0z"/></clipPath></defs></svg><svg viewBox="0 0 13 14" id="about__slider-right" xmlns="http://www.w3.org/2000/svg"><g clip-path="url(#bclip0)"><path d="M7.425 13L13 7 7.427 1l-.657.705L11.223 6.5H0v1h11.223l-4.455 4.797.657.703z"/></g><defs><clipPath id="bclip0"><path transform="rotate(-180 13 14)" d="M13 14h13v14H13z"/></clipPath></defs></svg><svg viewBox="0 0 17 17" id="icon__add-file" xmlns="http://www.w3.org/2000/svg"><g clip-path="url(#cclip0)"><path d="M16.28 6.191a.708.708 0 00-1.002.003l-8.515 8.561a2.834 2.834 0 01-4.005-4.008l8.767-8.813a1.77 1.77 0 012.502 2.505l-7.262 7.263-.002.002a.708.708 0 01-1-1.003L9.27 7.194a.708.708 0 00-1.002-1.001L4.761 9.699a2.125 2.125 0 103.006 3.005l.002-.003 7.26-7.26A3.188 3.188 0 0010.522.933L1.755 9.746a4.25 4.25 0 006.011 6.01l8.517-8.563a.708.708 0 00-.003-1.002z"/></g><defs><clipPath id="cclip0"><path d="M0 0h17v17H0z"/></clipPath></defs></svg><svg viewBox="0 0 7 11" id="icon__back" xmlns="http://www.w3.org/2000/svg"><path d="M2.44 5.502l4.116-4.115A.596.596 0 006.73.962a.597.597 0 00-.175-.426l-.36-.36A.597.597 0 005.77 0a.597.597 0 00-.426.176l-4.9 4.9a.597.597 0 00-.175.426c0 .162.062.314.176.427l4.895 4.895a.597.597 0 00.425.176.597.597 0 00.426-.176l.36-.36a.602.602 0 000-.851l-4.11-4.11z"/></svg><svg viewBox="0 0 21 19" id="icon__callback" xmlns="http://www.w3.org/2000/svg"><path d="M0 18.5l21-9-21-9v7l15 2-15 2v7z"/></svg><svg viewBox="0 0 20 16" id="icon__catalog-menu" xmlns="http://www.w3.org/2000/svg"><path d="M19.219 7.219H.78a.781.781 0 100 1.562H19.22a.781.781 0 000-1.562zM19.219.969H.78a.781.781 0 100 1.562H19.22a.781.781 0 000-1.562zM19.219 13.469H.78a.781.781 0 100 1.562H19.22a.781.781 0 100-1.562z"/></svg><svg viewBox="0 0 19 19" id="icon__check" xmlns="http://www.w3.org/2000/svg"><g clip-path="url(#gclip0)"><path d="M18.722 2.802a.95.95 0 00-1.344 0L5.997 14.183 1.622 9.808a.95.95 0 10-1.344 1.344l5.047 5.046a.95.95 0 001.343 0L18.722 4.145a.95.95 0 000-1.343z"/></g><defs><clipPath id="gclip0"><path d="M0 0h19v19H0z"/></clipPath></defs></svg><svg viewBox="0 0 16 16" id="icon__close" xmlns="http://www.w3.org/2000/svg"><path d="M9.762 8l5.982-5.982A.871.871 0 0016 1.399a.868.868 0 00-.256-.619L15.22.256a.868.868 0 00-.619-.255.868.868 0 00-.619.255L8 6.238 2.018.256a.867.867 0 00-.619-.255.867.867 0 00-.619.255L.256.78a.876.876 0 000 1.238L6.238 8 .256 13.982a.87.87 0 00-.255.62c0 .234.09.453.255.618l.524.524A.867.867 0 001.4 16c.234 0 .454-.09.619-.256L8 9.762l5.982 5.982a.868.868 0 00.619.256c.234 0 .454-.09.619-.256l.524-.524a.87.87 0 00.256-.619.87.87 0 00-.256-.619L9.762 8z"/></svg><svg viewBox="0 0 21 5" id="icon__dotted" xmlns="http://www.w3.org/2000/svg"><circle cx="18.5" cy="2.5" r="2.5"/><circle cx="2.5" cy="2.5" r="2.5"/><circle cx="10.5" cy="2.5" r="2.5"/></svg><svg viewBox="0 0 23 23" id="icon__download" xmlns="http://www.w3.org/2000/svg"><path d="M18.408 12.51L11.5 19.42l-6.908-6.91 1.27-1.27 4.74 4.74V0h1.796v15.98l4.74-4.74 1.27 1.27zM23 21.204H0V23h23v-1.797z"/></svg><svg viewBox="0 0 21 21" id="icon__info" xmlns="http://www.w3.org/2000/svg"><path d="M11.375 5.25a.875.875 0 11-1.75 0 .875.875 0 011.75 0zM10.5 16.625a.656.656 0 01-.656-.656V9.188h-.875a.656.656 0 010-1.313h1.53c.363 0 .657.294.657.656v7.438a.656.656 0 01-.656.656z"/><path d="M10.5 21C4.71 21 0 16.29 0 10.5S4.71 0 10.5 0 21 4.71 21 10.5 16.29 21 10.5 21zm0-19.688c-5.066 0-9.188 4.122-9.188 9.188 0 5.066 4.122 9.188 9.188 9.188 5.066 0 9.188-4.122 9.188-9.188 0-5.066-4.122-9.188-9.188-9.188z"/><path d="M12.469 16.625H8.53a.656.656 0 010-1.313h3.938a.656.656 0 010 1.313z"/></svg><svg viewBox="0 0 18 18" id="icon__loupe" xmlns="http://www.w3.org/2000/svg"><path d="M7.927 0C3.557 0 0 3.556 0 7.927c0 4.37 3.556 7.927 7.927 7.927 4.37 0 7.927-3.556 7.927-7.927C15.854 3.557 12.298 0 7.927 0zm0 14.39a6.47 6.47 0 01-6.464-6.463 6.47 6.47 0 016.464-6.464 6.47 6.47 0 016.463 6.464 6.47 6.47 0 01-6.463 6.463z"/><path d="M17.785 16.75l-4.195-4.194a.731.731 0 10-1.035 1.034l4.195 4.195a.73.73 0 001.035 0 .732.732 0 000-1.034z"/></svg><svg viewBox="0 0 16 16" id="icon__max" xmlns="http://www.w3.org/2000/svg"><path d="M15.375 7.375h-6.75V.625a.625.625 0 10-1.25 0v6.75H.625a.625.625 0 100 1.25h6.75v6.75a.625.625 0 101.25 0v-6.75h6.75a.625.625 0 100-1.25z"/></svg><svg viewBox="0 0 16 2" id="icon__min" xmlns="http://www.w3.org/2000/svg"><path d="M15.2 1.825H.8a.8.8 0 010-1.6h14.4a.8.8 0 010 1.6z"/></svg><svg viewBox="0 0 9 15" id="icon__product-left" xmlns="http://www.w3.org/2000/svg"><path d="M1.853 7.503L8.371.985A.577.577 0 007.555.17L.63 7.095a.577.577 0 000 .817l6.926 6.926a.577.577 0 00.816-.816L1.853 7.503z"/></svg><svg viewBox="0 0 9 15" id="icon__product-right" xmlns="http://www.w3.org/2000/svg"><path d="M7.147 7.497L.629 14.015a.577.577 0 00.816.816L8.37 7.905a.577.577 0 000-.817L1.445.162a.577.577 0 00-.816.816l6.518 6.519z"/></svg></svg>