<?xml version="1.0" encoding="utf-8"?><svg viewBox="0 0 21 19" xmlns="http://www.w3.org/2000/svg" xmlns:xlink="http://www.w3.org/1999/xlink"><style>:root>svg{display:none}:root>svg:target{display:block}</style><svg viewBox="0 0 17 17" id="icon__add-file" xmlns="http://www.w3.org/2000/svg"><g clip-path="url(#aclip0)"><path d="M16.28 6.191a.708.708 0 00-1.002.003l-8.515 8.561a2.834 2.834 0 01-4.005-4.008l8.767-8.813a1.77 1.77 0 012.502 2.505l-7.262 7.263-.002.002a.708.708 0 01-1-1.003L9.27 7.194a.708.708 0 00-1.002-1.001L4.761 9.699a2.125 2.125 0 103.006 3.005l.002-.003 7.26-7.26A3.188 3.188 0 0010.522.933L1.755 9.746a4.25 4.25 0 006.011 6.01l8.517-8.563a.708.708 0 00-.003-1.002z"/></g><defs><clipPath id="aclip0"><path d="M0 0h17v17H0z"/></clipPath></defs></svg><svg viewBox="0 0 21 19" id="icon__callback" xmlns="http://www.w3.org/2000/svg"><path d="M0 18.5l21-9-21-9v7l15 2-15 2v7z"/></svg><svg viewBox="0 0 20 16" id="icon__catalog-menu" xmlns="http://www.w3.org/2000/svg"><path d="M19.219 7.219H.78a.781.781 0 100 1.562H19.22a.781.781 0 000-1.562zM19.219.969H.78a.781.781 0 100 1.562H19.22a.781.781 0 000-1.562zM19.219 13.469H.78a.781.781 0 100 1.562H19.22a.781.781 0 100-1.562z"/></svg><svg viewBox="0 0 16 16" id="icon__close" xmlns="http://www.w3.org/2000/svg"><path d="M9.762 8l5.982-5.982A.871.871 0 0016 1.399a.868.868 0 00-.256-.619L15.22.256a.868.868 0 00-.619-.255.868.868 0 00-.619.255L8 6.238 2.018.256a.867.867 0 00-.619-.255.867.867 0 00-.619.255L.256.78a.876.876 0 000 1.238L6.238 8 .256 13.982a.87.87 0 00-.255.62c0 .234.09.453.255.618l.524.524A.867.867 0 001.4 16c.234 0 .454-.09.619-.256L8 9.762l5.982 5.982a.868.868 0 00.619.256c.234 0 .454-.09.619-.256l.524-.524a.87.87 0 00.256-.619.87.87 0 00-.256-.619L9.762 8z"/></svg><svg viewBox="0 0 21 5" id="icon__dotted" xmlns="http://www.w3.org/2000/svg"><circle cx="18.5" cy="2.5" r="2.5"/><circle cx="2.5" cy="2.5" r="2.5"/><circle cx="10.5" cy="2.5" r="2.5"/></svg><svg viewBox="0 0 18 18" id="icon__loupe" xmlns="http://www.w3.org/2000/svg"><path d="M7.927 0C3.557 0 0 3.556 0 7.927c0 4.37 3.556 7.927 7.927 7.927 4.37 0 7.927-3.556 7.927-7.927C15.854 3.557 12.298 0 7.927 0zm0 14.39a6.47 6.47 0 01-6.464-6.463 6.47 6.47 0 016.464-6.464 6.47 6.47 0 016.463 6.464 6.47 6.47 0 01-6.463 6.463z"/><path d="M17.785 16.75l-4.195-4.194a.731.731 0 10-1.035 1.034l4.195 4.195a.73.73 0 001.035 0 .732.732 0 000-1.034z"/></svg></svg>